<?xml version="1.0" encoding="UTF-8"?>
<svg id="Layer_1" data-name="Layer 1" xmlns="http://www.w3.org/2000/svg" viewBox="0 0 222.64 93.96">
  <defs>
    <style>
      .cls-1 {
        fill: #cebf02;
      }
    </style>
  </defs>
  <path class="cls-1" d="M15.89,81.45c-4.06-3.58-6.09-8.5-6.09-14.75V30.63c0-7.77,1.83-13.63,5.5-17.58,3.67-3.95,9.42-5.92,17.25-5.92,6.83,0,12.33,1.58,16.5,4.74,4.17,3.16,6.25,7.71,6.25,13.66v13.48h-18.44v-11.57c0-2.24-.32-3.79-.97-4.64-.65-.85-1.76-1.27-3.34-1.27s-2.79.49-3.4,1.46c-.61.97-.92,2.4-.92,4.28v39.25c0,2.07.36,3.57,1.08,4.51.72.94,1.8,1.41,3.23,1.41,2.87,0,4.31-1.97,4.31-5.92v-14.12h18.66v14.75c0,13.12-7.8,19.67-23.4,19.67-6.76,0-12.17-1.79-16.23-5.37Z"/>
  <path class="cls-1" d="M63.12,81.68c-2.26-3.43-3.4-8.33-3.4-14.71,0-5.22.81-9.23,2.43-12.02,1.62-2.79,3.86-4.84,6.74-6.15,2.87-1.3,7.26-2.75,13.16-4.33l5.18-1.46v-6.83c0-1.76-.41-3.11-1.24-4.05-.83-.94-1.82-1.41-2.97-1.41-1.01,0-1.89.4-2.64,1.18-.75.79-1.13,1.85-1.13,3.19v4.01h-18.33v-2.19c0-6.56,1.81-11.23,5.45-14.02,3.63-2.79,9.54-4.19,17.74-4.19,6.54,0,11.86,1.44,15.96,4.33,4.1,2.88,6.15,6.97,6.15,12.25v50.82h-18.76v-7.92c-.94,2.73-2.43,4.86-4.48,6.37-2.05,1.52-4.47,2.28-7.28,2.28-6.11,0-10.3-1.72-12.56-5.15ZM86.19,72.94c.61-1,.92-2.23.92-3.69v-18.58c-2.8.91-4.87,2.07-6.2,3.46-1.33,1.4-1.99,3.34-1.99,5.83v8.56c0,3.95,1.4,5.92,4.21,5.92,1.44,0,2.46-.5,3.07-1.5Z"/>
  <path class="cls-1" d="M132.83,78.99v7.1h-19.41V7.41h19.41v15.21c3.02-2.61,6.54-3.92,10.57-3.92,6.11,0,10.5,1.53,13.16,4.6,2.66,3.07,3.99,7.48,3.99,13.25v32.15c0,5.46-1.37,9.85-4.1,13.16-2.73,3.31-6.9,4.96-12.51,4.96-5.18,0-8.88-2.61-11.11-7.83ZM140.33,73.39c.54-.7.86-1.58.97-2.64.11-1.06.16-2.72.16-4.96v-27.78c0-2.37-.25-4.13-.76-5.28-.5-1.15-1.58-1.73-3.23-1.73-1.8,0-3.02.58-3.67,1.73-.65,1.15-.97,2.86-.97,5.1v27.96c0,2.92.29,5.09.86,6.51.57,1.43,1.87,2.14,3.88,2.14,1.29,0,2.21-.35,2.75-1.05Z"/>
  <path class="cls-1" d="M165.72,66.79l.11-5.28h18.87l.11,7.83c0,1.58.36,2.78,1.08,3.6.72.82,1.9,1.23,3.56,1.23,2.52,0,3.77-1.73,3.77-5.19,0-2.55-.59-4.55-1.78-6.01-1.19-1.46-3.07-3.01-5.66-4.64l-10.03-6.56c-3.45-2.25-5.93-4.57-7.44-6.97-1.51-2.4-2.26-5.78-2.26-10.16,0-3.4,1.06-6.3,3.18-8.7,2.12-2.4,4.94-4.2,8.46-5.42,3.52-1.21,7.44-1.82,11.75-1.82,15.31,0,22.97,6.44,22.97,19.31v1.27h-19.52v-2.55c0-1.58-.31-2.93-.92-4.05-.61-1.12-1.64-1.68-3.07-1.68-1.29,0-2.28.32-2.97.96-.68.64-1.02,1.5-1.02,2.6,0,2.43,1.11,4.31,3.34,5.65l11.65,7.19c4.17,2.61,7.37,5.45,9.6,8.52,2.23,3.07,3.34,6.94,3.34,11.61,0,6.19-2.09,10.96-6.25,14.3-4.17,3.34-9.99,5.01-17.47,5.01-15.6,0-23.4-6.68-23.4-20.04Z"/>
</svg>