<?xml version="1.0" encoding="UTF-8"?>
<svg id="Layer_1" data-name="Layer 1" xmlns="http://www.w3.org/2000/svg" viewBox="0 0 243.28 46.47">
  <defs>
    <style>
      .cls-1 {
        fill: #51514e;
      }
    </style>
  </defs>
  <path class="cls-1" d="M3.44,37.06V5.68h6.28v26.05h6.47v5.33H3.44Z"/>
  <path class="cls-1" d="M19.22,8.53v-4.46h6.39v4.46h-6.39ZM19.22,37.06V10.32h6.39v26.74h-6.39Z"/>
  <path class="cls-1" d="M28.97,29.32l.04-2.12h6.39l.04,3.14c0,.63.12,1.11.37,1.44.24.33.65.49,1.21.49.85,0,1.28-.69,1.28-2.08,0-1.02-.2-1.83-.6-2.41s-1.04-1.21-1.92-1.86l-3.4-2.63c-1.17-.9-2.01-1.83-2.52-2.79-.51-.96-.77-2.32-.77-4.07,0-1.36.36-2.53,1.08-3.49.72-.96,1.67-1.69,2.87-2.17,1.19-.49,2.52-.73,3.98-.73,5.19,0,7.78,2.58,7.78,7.74v.51h-6.61v-1.02c0-.63-.1-1.17-.31-1.63-.21-.45-.55-.68-1.04-.68-.44,0-.77.13-1,.38s-.35.6-.35,1.04c0,.97.38,1.73,1.13,2.27l3.95,2.89c1.41,1.05,2.5,2.19,3.25,3.42.75,1.23,1.13,2.78,1.13,4.66,0,2.48-.71,4.4-2.12,5.74-1.41,1.34-3.39,2.01-5.92,2.01-5.29,0-7.93-2.68-7.93-8.04Z"/>
  <path class="cls-1" d="M50.38,36.29c-.63-.71-.95-1.84-.95-3.4v-16.7h-1.79v-4.86h1.79v-5.66h6.21v5.66h1.83v4.86h-1.83v15.02c0,.46.04.8.11,1.02s.27.33.58.33c.24,0,.48-.01.69-.04.22-.02.37-.04.44-.04v4.38c-.37.1-.9.2-1.59.31-.69.11-1.37.16-2.03.16-1.68,0-2.84-.35-3.47-1.06Z"/>
  <path class="cls-1" d="M60.68,29.06v-10.74c0-2.53.71-4.55,2.14-6.05,1.42-1.5,3.38-2.25,5.86-2.25s4.44.75,5.86,2.25c1.42,1.5,2.14,3.51,2.14,6.05v10.74c0,5.53-2.67,8.29-8,8.29s-8-2.76-8-8.29ZM69.82,31.87c.24-.37.37-.86.37-1.5v-13.08c0-1.56-.5-2.34-1.5-2.34s-1.5.78-1.5,2.34v13.08c0,.63.12,1.13.37,1.5.24.37.62.55,1.13.55s.89-.18,1.13-.55Z"/>
  <path class="cls-1" d="M90.46,10.32h6.5v1.42c.93-1.14,2.2-1.72,3.84-1.72,2.07,0,3.51.69,4.33,2.08.82,1.39,1.22,3.31,1.22,5.77v9.9c0,2.09-.12,3.81-.37,5.13-.24,1.33-.78,2.4-1.61,3.21-.83.82-2.08,1.22-3.76,1.22s-2.83-.45-3.65-1.35v6.39h-6.5V10.32ZM99.63,31.58c.17-.54.26-1.31.26-2.34v-11.36c0-.93-.09-1.63-.26-2.12-.17-.49-.56-.73-1.17-.73-1,0-1.5.93-1.5,2.78v11.73c0,.9.1,1.6.31,2.1.21.5.62.75,1.22.75s.96-.27,1.13-.8Z"/>
  <path class="cls-1" d="M110.75,35.29c-.77-1.38-1.15-3.34-1.15-5.9,0-2.09.27-3.7.82-4.82.55-1.12,1.31-1.94,2.28-2.47.97-.52,2.46-1.1,4.46-1.74l1.75-.58v-2.74c0-.71-.14-1.25-.42-1.63-.28-.38-.62-.57-1-.57-.34,0-.64.16-.9.48-.26.32-.38.74-.38,1.28v1.61h-6.21v-.88c0-2.63.61-4.51,1.85-5.63,1.23-1.12,3.23-1.68,6.01-1.68,2.22,0,4.02.58,5.41,1.74s2.08,2.79,2.08,4.91v20.39h-6.36v-3.18c-.32,1.1-.82,1.95-1.52,2.56-.69.61-1.52.91-2.47.91-2.07,0-3.49-.69-4.26-2.06ZM118.57,31.78c.21-.4.31-.9.31-1.48v-7.45c-.95.37-1.65.83-2.1,1.39-.45.56-.68,1.34-.68,2.34v3.43c0,1.58.48,2.37,1.42,2.37.49,0,.83-.2,1.04-.6Z"/>
  <path class="cls-1" d="M129.22,10.32h6.39v2.96c.32-1.05.87-1.86,1.66-2.43.79-.57,1.77-.86,2.94-.86v5.33c-.9,0-1.89.13-2.98.38-1.08.26-1.63.55-1.63.9v20.46h-6.39V10.32Z"/>
  <path class="cls-1" d="M143.81,35.29c-.77-1.38-1.15-3.34-1.15-5.9,0-2.09.27-3.7.82-4.82.55-1.12,1.31-1.94,2.28-2.47.97-.52,2.46-1.1,4.46-1.74l1.75-.58v-2.74c0-.71-.14-1.25-.42-1.63-.28-.38-.62-.57-1-.57-.34,0-.64.16-.9.48-.26.32-.38.74-.38,1.28v1.61h-6.21v-.88c0-2.63.61-4.51,1.85-5.63,1.23-1.12,3.23-1.68,6.01-1.68,2.22,0,4.02.58,5.41,1.74s2.08,2.79,2.08,4.91v20.39h-6.36v-3.18c-.32,1.1-.82,1.95-1.52,2.56-.69.61-1.52.91-2.47.91-2.07,0-3.49-.69-4.26-2.06ZM151.63,31.78c.21-.4.31-.9.31-1.48v-7.45c-.95.37-1.65.83-2.1,1.39-.45.56-.68,1.34-.68,2.34v3.43c0,1.58.48,2.37,1.42,2.37.49,0,.83-.2,1.04-.6Z"/>
  <path class="cls-1" d="M173.88,35.16c-1.25-1.46-1.88-3.63-1.88-6.5V5.68h6.1v22.72c0,1,.1,1.78.29,2.34.19.56.61.84,1.24.84s1.05-.27,1.24-.82c.19-.55.29-1.33.29-2.36V5.68h6.1v22.98c0,2.87-.63,5.04-1.88,6.5-1.25,1.46-3.17,2.19-5.75,2.19s-4.5-.73-5.75-2.19Z"/>
  <path class="cls-1" d="M190.41,29.32l.04-2.12h6.39l.04,3.14c0,.63.12,1.11.37,1.44.24.33.65.49,1.21.49.85,0,1.28-.69,1.28-2.08,0-1.02-.2-1.83-.6-2.41s-1.04-1.21-1.92-1.86l-3.4-2.63c-1.17-.9-2.01-1.83-2.52-2.79-.51-.96-.77-2.32-.77-4.07,0-1.36.36-2.53,1.08-3.49.72-.96,1.67-1.69,2.87-2.17,1.19-.49,2.52-.73,3.98-.73,5.19,0,7.78,2.58,7.78,7.74v.51h-6.61v-1.02c0-.63-.1-1.17-.31-1.63-.21-.45-.55-.68-1.04-.68-.44,0-.77.13-1,.38s-.35.6-.35,1.04c0,.97.38,1.73,1.13,2.27l3.95,2.89c1.41,1.05,2.5,2.19,3.25,3.42.75,1.23,1.13,2.78,1.13,4.66,0,2.48-.71,4.4-2.12,5.74-1.41,1.34-3.39,2.01-5.92,2.01-5.29,0-7.93-2.68-7.93-8.04Z"/>
  <path class="cls-1" d="M210.37,35.29c-.77-1.38-1.15-3.34-1.15-5.9,0-2.09.27-3.7.82-4.82.55-1.12,1.31-1.94,2.28-2.47.97-.52,2.46-1.1,4.46-1.74l1.75-.58v-2.74c0-.71-.14-1.25-.42-1.63-.28-.38-.62-.57-1-.57-.34,0-.64.16-.9.48-.26.32-.38.74-.38,1.28v1.61h-6.21v-.88c0-2.63.61-4.51,1.85-5.63,1.23-1.12,3.23-1.68,6.01-1.68,2.22,0,4.02.58,5.41,1.74s2.08,2.79,2.08,4.91v20.39h-6.36v-3.18c-.32,1.1-.82,1.95-1.52,2.56-.69.61-1.52.91-2.47.91-2.07,0-3.49-.69-4.26-2.06ZM218.19,31.78c.21-.4.31-.9.31-1.48v-7.45c-.95.37-1.65.83-2.1,1.39-.45.56-.68,1.34-.68,2.34v3.43c0,1.58.48,2.37,1.42,2.37.49,0,.83-.2,1.04-.6Z"/>
  <path class="cls-1" d="M228.84,10.32h6.39v2.96c.32-1.05.87-1.86,1.66-2.43.79-.57,1.77-.86,2.94-.86v5.33c-.9,0-1.89.13-2.98.38-1.08.26-1.63.55-1.63.9v20.46h-6.39V10.32Z"/>
</svg>